<svg xmlns="http://www.w3.org/2000/svg" xmlns:xlink="http://www.w3.org/1999/xlink" version="1.1" x="0px" y="0px" viewBox="0 0 100 100" enable-background="new 0 0 100 100" xml:space="preserve"><path d="M53.922,5.171C29.163,3.005,7.337,21.319,5.171,46.078C3.005,70.836,21.319,92.663,46.078,94.829  c24.758,2.166,46.585-16.149,48.751-40.907C96.995,29.164,78.68,7.337,53.922,5.171z M46.34,91.84  c-23.071-2.019-40.198-22.43-38.18-45.5c2.019-23.07,22.43-40.198,45.5-38.18c23.071,2.019,40.198,22.43,38.18,45.5  C89.821,76.731,69.41,93.858,46.34,91.84z"></path><path d="M53.573,9.156C31.052,7.186,11.126,23.905,9.156,46.427C7.186,68.948,23.905,88.874,46.427,90.844  c22.521,1.971,42.447-14.749,44.417-37.271C92.814,31.052,76.095,11.126,53.573,9.156z M89.838,46.466l-0.042-0.196L73.62,49.745  l-9.993-2.147l8.656-5.436l16.389-2.267l-0.046-0.331C89.229,41.799,89.631,44.108,89.838,46.466z M55.434,48.498l-0.251-0.323  c-0.013-0.035-0.026-0.068-0.039-0.103l-0.016-0.415l0.48,0.301L55.434,48.498z M55.62,49.553L55.968,50l-0.348,0.448l-0.126-0.39  c0.001-0.043,0.006-0.087,0.005-0.131L55.62,49.553z M55.143,51.935c0.015-0.036,0.026-0.071,0.038-0.108l0.254-0.325l0.174,0.54  l-0.48,0.302L55.143,51.935z M55.767,52.533l0.315,0.979l-1.005,0.216l0.029-0.781L55.767,52.533z M56.046,51.767l-0.24-0.743  l0.479-0.616l0.632,0.813L56.046,51.767z M55.806,48.976l0.24-0.743l0.871,0.547l-0.632,0.812L55.806,48.976z M55.767,47.467  l-0.661-0.415l-0.029-0.78l1.006,0.216L55.767,47.467z M55.057,45.756l-0.044-1.206l1.773-0.245l-0.55,1.705L55.057,45.756z   M55.058,54.244l1.18-0.254l0.549,1.704l-1.773-0.245L55.058,54.244z M56.204,52.258l1.021-0.641l1.1,1.413l-1.751,0.376  L56.204,52.258z M56.603,50l0.74-0.952L58.859,50l-1.517,0.952L56.603,50z M57.226,48.383l-1.021-0.641l0.371-1.148l1.75,0.376  L57.226,48.383z M56.729,46.116l0.609-1.887l3.495-0.483l-2.167,2.786L56.729,46.116z M56.957,43.777l-1.963,0.271l-0.073-1.98  l3.119-1.65L56.957,43.777z M54.994,55.952l1.964,0.271l1.082,3.358l-3.119-1.65L54.994,55.952z M56.729,53.885l1.937-0.416  l2.166,2.785l-3.495-0.483L56.729,53.885z M57.651,51.35l1.679-1.054l2.988,1.877l-3.45,0.741L57.651,51.35z M57.651,48.651  l1.217-1.564l3.45,0.741l-2.988,1.877L57.651,48.651z M59.209,46.648l2.334-3.001l9.534-1.319l-8.151,5.118L59.209,46.648z   M61.273,43.18l-3.767,0.521l1.168-3.618l8.509-4.5L61.273,43.18z M58.26,39.736L54.9,41.513l-0.142-3.799l6.455-7.139L58.26,39.736  z M54.9,58.487l3.36,1.777l2.953,9.159l-6.454-7.138L54.9,58.487z M57.508,56.3l3.765,0.521l5.908,7.596l-8.506-4.499L57.508,56.3z   M59.209,53.352l3.717-0.799l8.15,5.118l-9.533-1.318L59.209,53.352z M59.8,50l3.22-2.021L72.43,50l-9.41,2.021L59.8,50z   M88.578,39.403l-15.265,2.111l13.041-8.188C87.251,35.278,88.002,37.307,88.578,39.403z M86.232,33.064l-0.114-0.18l-14.011,8.797  l-10.125,1.401l6.277-8.069l14.623-7.735l-0.098-0.184C84.101,28.975,85.252,30.974,86.232,33.064z M82.613,26.855l-13.607,7.196  l9.451-12.15C79.973,23.439,81.362,25.095,82.613,26.855z M78.25,21.688l-0.163-0.126L67.93,34.621L58.895,39.4l3.138-9.73  l11.095-12.269l-0.16-0.146C74.856,18.585,76.625,20.066,78.25,21.688z M72.732,17.093L62.406,28.512l4.729-14.664  C69.1,14.78,70.967,15.871,72.732,17.093z M66.983,13.773l-0.317-0.102l-5.078,15.746l-6.855,7.58l-0.379-10.214l6.23-15.326  l-0.188-0.076C62.683,11.994,64.888,12.79,66.983,13.773z M47.984,55.54l0.523,0.579l-0.909,0.48l-0.389-0.952L47.984,55.54z   M47.016,55.169l-0.213-0.525l0.405,0.087c0.031,0.019,0.063,0.038,0.094,0.057l0.275,0.304L47.016,55.169z M48.854,56.502  l0.81,0.895l-1.202,1.328l-0.674-1.659L48.854,56.502z M48.583,55.457l0.391-0.055c0.042,0.009,0.086,0.012,0.129,0.019l0.362,0.191  l-0.501,0.265L48.583,55.457z M49.311,56.261L50,55.896l0.69,0.365L50,57.023L49.311,56.261z M50.535,55.612l0.364-0.193  c0.037-0.005,0.074-0.011,0.112-0.019l0.405,0.057l-0.38,0.42L50.535,55.612z M51.146,56.502l1.066,0.564l-0.675,1.658l-1.201-1.328  L51.146,56.502z M51.493,56.119l0.522-0.578l0.774,0.106L52.401,56.6L51.493,56.119z M52.423,55.091l0.271-0.3  c0.033-0.019,0.064-0.041,0.098-0.06l0.405-0.089l-0.214,0.525L52.423,55.091z M49.607,54.482c-2.472-0.216-4.307-2.402-4.09-4.875  c0.216-2.472,2.402-4.307,4.875-4.091c2.472,0.216,4.307,2.403,4.09,4.875C54.267,52.864,52.08,54.699,49.607,54.482z M52.016,44.46  l-0.523-0.579l0.909-0.482l0.389,0.954L52.016,44.46z M52.984,44.831l0.214,0.526l-0.406-0.087  c-0.031-0.019-0.063-0.039-0.096-0.057l-0.274-0.303L52.984,44.831z M51.146,43.499l-0.811-0.896l1.202-1.329l0.675,1.66  L51.146,43.499z M51.418,44.543l-0.39,0.054c-0.043-0.008-0.088-0.01-0.131-0.018l-0.362-0.192l0.502-0.265L51.418,44.543z   M50.69,43.74L50,44.104l-0.69-0.365L50,42.976L50.69,43.74z M49.465,44.388l-0.364,0.192c-0.038,0.007-0.076,0.012-0.114,0.019  l-0.404-0.056l0.382-0.421L49.465,44.388z M48.854,43.498l-1.066-0.564l0.675-1.659l1.201,1.328L48.854,43.498z M48.507,43.881  l-0.523,0.579l-0.773-0.107l0.389-0.953L48.507,43.881z M47.578,44.909l-0.271,0.299c-0.034,0.02-0.065,0.042-0.1,0.062  l-0.404,0.087l0.214-0.526L47.578,44.909z M53.495,44.76l1.021-0.141l0.037,1.028l-0.764-0.164L53.495,44.76z M53.301,44.283  l-0.454-1.118l1.583-0.838l0.067,1.791L53.301,44.283z M52.657,42.699l-0.746-1.836l2.367-2.619l0.131,3.528L52.657,42.699z   M51.702,40.349l-1.432-3.521l3.625-8.917l0.356,9.619L51.702,40.349z M51.329,40.761l-1.33,1.47l-1.328-1.469L50,37.492  L51.329,40.761z M48.298,40.349l-2.55-2.818l0.357-9.618l3.625,8.914L48.298,40.349z M48.089,40.863l-0.746,1.836l-1.752-0.926  l0.131-3.527L48.089,40.863z M47.153,43.165l-0.455,1.118l-1.194-0.165l0.066-1.79L47.153,43.165z M46.504,44.76l-0.294,0.724  l-0.762,0.164l0.038-1.029L46.504,44.76z M45.982,46.044l-0.157,0.385c-0.024,0.029-0.052,0.056-0.076,0.086l-0.342,0.214  l0.021-0.567L45.982,46.044z M45.754,53.487c0.024,0.03,0.049,0.06,0.075,0.089l0.153,0.38l-0.555-0.119l-0.021-0.567L45.754,53.487  z M46.21,54.516l0.295,0.723l-1.021,0.142l-0.037-1.027L46.21,54.516z M46.699,55.718l0.454,1.118l-1.583,0.837l-0.067-1.789  L46.699,55.718z M47.343,57.301l0.746,1.836l-2.367,2.618l-0.131-3.527L47.343,57.301z M48.298,59.651l1.432,3.521l-3.625,8.916  l-0.356-9.618L48.298,59.651z M48.671,59.239l1.33-1.47l1.328,1.47L50,62.509L48.671,59.239z M51.702,59.652l2.55,2.818  l-0.357,9.618l-3.625-8.916L51.702,59.652z M51.911,59.137l0.746-1.835l1.752,0.927l-0.131,3.525L51.911,59.137z M52.847,56.836  l0.455-1.118l1.193,0.165l-0.065,1.789L52.847,56.836z M53.496,55.239l0.294-0.723l0.763-0.165l-0.038,1.029L53.496,55.239z   M54.019,53.955l0.156-0.386c0.024-0.028,0.052-0.055,0.076-0.084l0.342-0.215l-0.021,0.565L54.019,53.955z M54.247,46.513  c-0.025-0.031-0.051-0.061-0.076-0.09l-0.153-0.379l0.555,0.119l0.021,0.567L54.247,46.513z M60.106,11.302l-5.798,14.263  l-0.571-15.384C55.923,10.385,58.048,10.767,60.106,11.302z M49.5,10.015V12c0,0.276,0.224,0.5,0.5,0.5s0.5-0.224,0.5-0.5v-1.986  c0.989,0.011,1.984,0.051,2.986,0.139l-0.25,0.009l0.613,16.531L50,36.163l-3.849-9.467l0.613-16.534l-0.208-0.007  C47.529,10.071,48.512,10.029,49.5,10.015z M46.263,10.181l-0.571,15.385L39.89,11.294C41.958,10.754,44.089,10.382,46.263,10.181z   M39.705,11.339l-0.289,0.117l6.23,15.327l-0.379,10.215l-6.855-7.582l-5.079-15.746l-0.199,0.064  C35.237,12.754,37.432,11.945,39.705,11.339z M44.857,48.066c-0.015,0.036-0.026,0.072-0.038,0.107l-0.253,0.325l-0.175-0.54  l0.48-0.302L44.857,48.066z M44.872,52.342l-0.48-0.301l0.175-0.539l0.251,0.324c0.013,0.034,0.026,0.067,0.039,0.102L44.872,52.342  z M44.506,49.942c-0.001,0.043-0.006,0.087-0.005,0.13l-0.121,0.375L44.032,50l0.348-0.448L44.506,49.942z M44.194,51.023  l-0.24,0.743l-0.871-0.548l0.632-0.812L44.194,51.023z M44.234,52.532l0.66,0.416l0.029,0.779l-1.006-0.215L44.234,52.532z   M44.895,47.052l-0.661,0.415l-0.315-0.979l1.005-0.216L44.895,47.052z M43.954,48.233l0.24,0.744l-0.479,0.616l-0.632-0.813  L43.954,48.233z M42.774,48.384l-1.1-1.414l1.75-0.376l0.371,1.148L42.774,48.384z M43.397,50l-0.74,0.952L41.141,50l1.516-0.952  L43.397,50z M42.774,51.616l1.021,0.642l-0.371,1.148l-1.75-0.376L42.774,51.616z M43.764,53.99l1.18,0.253l0.044,1.206  l-1.773,0.246L43.764,53.99z M44.942,45.757l-1.179,0.253l-0.55-1.705l1.773,0.245L44.942,45.757z M43.271,46.116l-1.937,0.416  l-2.167-2.786l3.495,0.483L43.271,46.116z M42.349,48.651l-1.679,1.053l-2.988-1.876l3.449-0.741L42.349,48.651z M42.349,51.349  l-1.217,1.565l-3.451-0.742l2.989-1.876L42.349,51.349z M41.334,53.469l1.938,0.416l-0.608,1.886l-3.495,0.484L41.334,53.469z   M43.043,56.224l1.963-0.271l0.073,1.98l-3.118,1.649L43.043,56.224z M45.006,44.048l-1.963-0.271l-1.083-3.359l3.119,1.65  L45.006,44.048z M42.492,43.701l-3.765-0.521l-5.91-7.598l8.508,4.5L42.492,43.701z M40.791,46.648l-3.716,0.798l-8.151-5.118  l9.532,1.318L40.791,46.648z M40.2,50l-3.22,2.021L27.57,50l9.41-2.021L40.2,50z M37.074,52.553l3.717,0.799l-2.334,3.001  l-9.534,1.319L37.074,52.553z M38.727,56.82l3.767-0.521l-1.168,3.617l-8.508,4.501L38.727,56.82z M41.74,60.265l3.359-1.777  l0.142,3.799l-6.455,7.138L41.74,60.265z M45.1,41.512l-3.36-1.777l-2.954-9.16l6.456,7.139L45.1,41.512z M32.868,13.858  l4.726,14.655L27.264,17.09C29.036,15.865,30.912,14.788,32.868,13.858z M27.021,17.267l-0.149,0.135l11.096,12.269l3.138,9.729  l-9.036-4.779L21.913,21.563l-0.152,0.118C23.385,20.062,25.146,18.585,27.021,17.267z M21.538,21.896l9.454,12.155l-13.609-7.198  C18.638,25.088,20.024,23.427,21.538,21.896z M17.217,27.09l-0.1,0.188l14.623,7.735l6.276,8.069l-10.124-1.4l-14.012-8.798  l-0.166,0.264C14.706,31.013,15.885,28.992,17.217,27.09z M13.639,33.322l13.047,8.192l-15.252-2.109  C12.011,37.299,12.747,35.266,13.639,33.322z M11.356,39.694l-0.028,0.201l16.388,2.267l8.657,5.436l-9.993,2.146L10.205,46.27  l-0.053,0.244C10.357,44.169,10.772,41.894,11.356,39.694z M10.137,46.766L25.189,50l-15.054,3.234  C9.966,51.113,9.958,48.954,10.137,46.766z M10.162,53.535l0.042,0.196l16.176-3.476l9.993,2.146l-8.656,5.437l-16.389,2.267  l0.045,0.328C10.771,58.201,10.369,55.893,10.162,53.535z M11.423,60.598l15.261-2.111l-13.038,8.187  C12.749,64.723,11.999,62.694,11.423,60.598z M13.767,66.935l0.115,0.182l14.009-8.797l10.126-1.4l-6.275,8.068l-14.624,7.735  l0.097,0.183C15.898,71.023,14.747,69.026,13.767,66.935z M17.388,73.146l13.606-7.197l-9.45,12.15  C20.028,76.562,18.638,74.905,17.388,73.146z M21.747,78.308l0.167,0.13L32.07,65.379l9.035-4.778l-3.137,9.727L26.872,82.598  l0.158,0.145C25.141,81.413,23.372,79.932,21.747,78.308z M27.268,82.906l10.327-11.419l-4.729,14.665  C30.9,85.221,29.032,84.129,27.268,82.906z M33.016,86.227l0.318,0.103l5.078-15.746l6.855-7.581l0.379,10.216l-6.23,15.326  l0.188,0.076C37.316,88.006,35.111,87.209,33.016,86.227z M39.894,88.698l5.798-14.263l0.571,15.384  C44.077,89.615,41.952,89.233,39.894,88.698z M46.514,89.848l0.25-0.01l-0.613-16.53l3.85-9.47l3.85,9.468l-0.613,16.533  l0.202,0.007C51.171,90.04,48.858,90.053,46.514,89.848z M53.738,89.819l0.57-15.384l5.802,14.27  C58.042,89.246,55.911,89.618,53.738,89.819z M60.297,88.66l0.287-0.117l-6.229-15.325l0.378-10.215l6.855,7.579l5.079,15.748  l0.193-0.063C64.759,87.246,62.567,88.056,60.297,88.66z M67.132,86.142l-4.727-14.655l10.331,11.422  C70.964,84.134,69.088,85.212,67.132,86.142z M72.986,82.728l0.143-0.13L62.032,70.327l-3.138-9.727l9.035,4.778l10.156,13.059  l0.153-0.117C76.616,79.936,74.859,81.41,72.986,82.728z M78.461,78.105l-9.454-12.157l13.61,7.199  C81.362,74.912,79.975,76.573,78.461,78.105z M82.784,72.908l0.099-0.187l-14.624-7.735l-6.275-8.068l10.125,1.402l14.01,8.796  l0.169-0.269C85.295,68.983,84.116,71.006,82.784,72.908z M86.361,66.678l-13.046-8.191l15.25,2.109  C87.989,62.702,87.253,64.734,86.361,66.678z M88.644,60.306l0.028-0.2l-16.389-2.268l-8.656-5.435l9.992-2.147l16.176,3.476  l0.053-0.245C89.643,55.832,89.228,58.106,88.644,60.306z M89.863,53.234L74.811,50l15.054-3.234  C90.034,48.886,90.042,51.047,89.863,53.234z"></path></svg>